<svg xmlns="http://www.w3.org/2000/svg" xmlns:xlink="http://www.w3.org/1999/xlink" version="1.1" id="Layer_3" x="0px" y="0px" viewBox="0 0 800 800" style="enable-background:new 0 0 800 800;" xml:space="preserve">
<style type="text/css">
	.st0{fill:#F2F2F3;}
	.st1{fill:#D3D3D3;}
	.st2{fill:#CDE8F9;}
	.st3{clip-path:url(#SVGID_2_);fill:#084970;}
	.st4{fill:#2B2B2B;}
	.st5{fill:#4C8DCB;}
	.st6{fill:#FDBD56;}
</style>
<g>
	<ellipse class="st0" cx="400" cy="635.08" rx="279.27" ry="38.42"/>
	<g>
		<g>
			<g>
				<path class="st1" d="M535.12,213.89c0-11.08,0-22.15,0-33.23c0-9.65-15-9.67-15,0c0,11.08,0,22.15,0,33.23      C520.12,223.54,535.12,223.56,535.12,213.89L535.12,213.89z"/>
			</g>
		</g>
		<g>
			<g>
				<path class="st1" d="M435.4,213.89c0-11.08,0-22.15,0-33.23c0-9.65-15-9.67-15,0c0,11.08,0,22.15,0,33.23      C420.4,223.54,435.4,223.56,435.4,213.89L435.4,213.89z"/>
			</g>
		</g>
		<g>
			<g>
				<path class="st1" d="M321.88,213.89c0-11.08,0-22.15,0-33.23c0-9.65-15-9.67-15,0c0,11.08,0,22.15,0,33.23      C306.88,223.54,321.88,223.56,321.88,213.89L321.88,213.89z"/>
			</g>
		</g>
		<path class="st1" d="M601.16,642.89H198.84c-8.8,0-15.93-7.13-15.93-15.93V210.12c0-8.8,7.13-15.93,15.93-15.93h402.31    c8.8,0,15.93,7.13,15.93,15.93v416.83C617.09,635.76,609.96,642.89,601.16,642.89z"/>
		<path class="st2" d="M580.33,642.89H198.84c-8.8,0-15.93-7.13-15.93-15.93V210.12c0-8.8,7.13-15.93,15.93-15.93h381.49    c8.8,0,15.93,7.13,15.93,15.93v416.83C596.27,635.76,589.13,642.89,580.33,642.89z"/>
		<g>
			<defs>
				<path id="SVGID_1_" d="M580.33,642.89H198.84c-8.8,0-15.93-7.13-15.93-15.93V210.12c0-8.8,7.13-15.93,15.93-15.93h381.49      c8.8,0,15.93,7.13,15.93,15.93v416.83C596.27,635.76,589.13,642.89,580.33,642.89z"/>
			</defs>
			<clipPath id="SVGID_2_">
				<use xlink:href="#SVGID_1_" style="overflow:visible;"/>
			</clipPath>
			<rect x="164.18" y="160.51" class="st3" width="471.65" height="144.19"/>
		</g>
		<circle class="st4" cx="389.59" cy="254.08" r="22.52"/>
		<circle class="st4" cx="276.2" cy="254.08" r="22.52"/>
		<circle class="st4" cx="489.31" cy="254.08" r="22.52"/>
		<g>
			<g>
				<path class="st1" d="M283.7,254.08c0-10.12,0-20.24,0-30.36c0-12.77,0-25.54,0-38.31c0-2.99-0.24-5.93,0.15-8.91      c-0.09,0.66-0.18,1.33-0.27,1.99c0.29-2.16,0.81-4.28,1.65-6.3c-0.25,0.6-0.5,1.19-0.76,1.79c0.35-0.82,0.74-1.61,1.2-2.37      c0.25-0.42,0.53-0.81,0.81-1.21c0.59-0.86-1.37,1.62-0.66,0.85c0.17-0.18,0.32-0.38,0.49-0.56c0.31-0.34,0.64-0.67,0.99-0.99      c0.16-0.15,0.33-0.28,0.5-0.43c0.82-0.73-1.8,1.29-0.72,0.57c0.89-0.59,1.79-1.1,2.77-1.52c-0.6,0.25-1.19,0.5-1.79,0.76      c1.41-0.57,2.87-0.94,4.38-1.15c-0.66,0.09-1.33,0.18-1.99,0.27c2.24-0.28,4.5-0.25,6.73,0.04c-0.66-0.09-1.33-0.18-1.99-0.27      c1.81,0.26,3.56,0.71,5.25,1.4c-0.6-0.25-1.19-0.5-1.79-0.76c1.24,0.53,2.38,1.18,3.49,1.95c0.12,0.09,0.25,0.21,0.38,0.28      c0.07,0.03-1.63-1.33-0.97-0.74c0.23,0.21,0.47,0.4,0.69,0.6c0.47,0.43,0.91,0.88,1.33,1.36c0.19,0.22,0.37,0.45,0.56,0.67      c0.5,0.56-1.2-1.63-0.78-1.01c0.08,0.12,0.17,0.23,0.25,0.34c0.32,0.45,0.63,0.92,0.91,1.4c0.56,0.93,1.04,1.9,1.46,2.9      c-0.25-0.6-0.5-1.19-0.76-1.79c0.88,2.12,1.48,4.34,1.79,6.61c-0.09-0.66-0.18-1.33-0.27-1.99c0.06,0.48,0.12,0.96,0.14,1.44      c0.15,3.92,3.34,7.69,7.5,7.5c3.93-0.18,7.66-3.3,7.5-7.5c-0.16-4.2-1.36-8.19-3.03-12.01c-3.07-7.04-9.26-12.39-16.64-14.49      c-8.79-2.51-19.42-1.2-26.08,5.48c-4.92,4.93-6.91,11.72-7.46,18.49c-0.16,2,0,3.95,0.03,5.94c0.03,2.94,0,5.88,0,8.82      c0,11.83,0,23.66,0,35.49c0,8.43-0.1,16.87,0,25.3c0,0.14,0,0.28,0,0.41c0,3.92,3.45,7.68,7.5,7.5      C280.26,261.4,283.7,258.29,283.7,254.08L283.7,254.08z"/>
			</g>
		</g>
		<g>
			<g>
				<path class="st1" d="M397.22,254.08c0-10.12,0-20.24,0-30.36c0-12.77,0-25.54,0-38.31c0-2.99-0.24-5.93,0.15-8.91      c-0.09,0.66-0.18,1.33-0.27,1.99c0.29-2.16,0.81-4.28,1.65-6.3c-0.25,0.6-0.5,1.19-0.76,1.79c0.35-0.82,0.74-1.61,1.2-2.37      c0.25-0.42,0.53-0.81,0.81-1.21c0.59-0.86-1.37,1.62-0.66,0.85c0.17-0.18,0.32-0.38,0.49-0.56c0.31-0.34,0.64-0.67,0.99-0.99      c0.16-0.15,0.33-0.28,0.5-0.43c0.82-0.73-1.8,1.29-0.72,0.57c0.89-0.59,1.79-1.1,2.77-1.52c-0.6,0.25-1.19,0.5-1.79,0.76      c1.41-0.57,2.87-0.94,4.38-1.15c-0.66,0.09-1.33,0.18-1.99,0.27c2.24-0.28,4.5-0.25,6.73,0.04c-0.66-0.09-1.33-0.18-1.99-0.27      c1.81,0.26,3.56,0.71,5.25,1.4c-0.6-0.25-1.19-0.5-1.79-0.76c1.24,0.53,2.38,1.18,3.49,1.95c0.12,0.09,0.25,0.21,0.38,0.28      c0.07,0.03-1.63-1.33-0.97-0.74c0.23,0.21,0.47,0.4,0.69,0.6c0.47,0.43,0.91,0.88,1.33,1.36c0.19,0.22,0.37,0.45,0.56,0.67      c0.5,0.56-1.2-1.63-0.78-1.01c0.08,0.12,0.17,0.23,0.25,0.34c0.32,0.45,0.63,0.92,0.91,1.4c0.56,0.93,1.04,1.9,1.46,2.9      c-0.25-0.6-0.5-1.19-0.76-1.79c0.88,2.12,1.48,4.34,1.79,6.61c-0.09-0.66-0.18-1.33-0.27-1.99c0.06,0.48,0.12,0.96,0.14,1.44      c0.15,3.92,3.34,7.69,7.5,7.5c3.93-0.18,7.66-3.3,7.5-7.5c-0.16-4.2-1.36-8.19-3.03-12.01c-3.07-7.04-9.26-12.39-16.64-14.49      c-8.79-2.51-19.42-1.2-26.08,5.48c-4.92,4.93-6.91,11.72-7.46,18.49c-0.16,2,0,3.95,0.03,5.94c0.03,2.94,0,5.88,0,8.82      c0,11.83,0,23.66,0,35.49c0,8.43-0.1,16.87,0,25.3c0,0.14,0,0.28,0,0.41c0,3.92,3.45,7.68,7.5,7.5      C393.79,261.4,397.22,258.29,397.22,254.08L397.22,254.08z"/>
			</g>
		</g>
		<g>
			<g>
				<path class="st1" d="M496.94,254.08c0-10.12,0-20.24,0-30.36c0-12.77,0-25.54,0-38.31c0-2.99-0.24-5.93,0.15-8.91      c-0.09,0.66-0.18,1.33-0.27,1.99c0.29-2.16,0.81-4.28,1.65-6.3c-0.25,0.6-0.5,1.19-0.76,1.79c0.35-0.82,0.74-1.61,1.2-2.37      c0.25-0.42,0.53-0.81,0.81-1.21c0.59-0.86-1.37,1.62-0.66,0.85c0.17-0.18,0.32-0.38,0.49-0.56c0.31-0.34,0.64-0.67,0.99-0.99      c0.16-0.15,0.33-0.28,0.5-0.43c0.82-0.73-1.8,1.29-0.72,0.57c0.89-0.59,1.79-1.1,2.77-1.52c-0.6,0.25-1.19,0.5-1.79,0.76      c1.41-0.57,2.87-0.94,4.38-1.15c-0.66,0.09-1.33,0.18-1.99,0.27c2.24-0.28,4.5-0.25,6.73,0.04c-0.66-0.09-1.33-0.18-1.99-0.27      c1.81,0.26,3.56,0.71,5.25,1.4c-0.6-0.25-1.19-0.5-1.79-0.76c1.24,0.53,2.38,1.18,3.49,1.95c0.12,0.09,0.25,0.21,0.38,0.28      c0.07,0.03-1.63-1.33-0.97-0.74c0.23,0.21,0.47,0.4,0.69,0.6c0.47,0.43,0.91,0.88,1.33,1.36c0.19,0.22,0.37,0.45,0.56,0.67      c0.5,0.56-1.2-1.63-0.78-1.01c0.08,0.12,0.17,0.23,0.25,0.34c0.32,0.45,0.63,0.92,0.91,1.4c0.56,0.93,1.04,1.9,1.46,2.9      c-0.25-0.6-0.5-1.19-0.76-1.79c0.88,2.12,1.48,4.34,1.79,6.61c-0.09-0.66-0.18-1.33-0.27-1.99c0.06,0.48,0.12,0.96,0.14,1.44      c0.15,3.92,3.34,7.69,7.5,7.5c3.93-0.18,7.66-3.3,7.5-7.5c-0.16-4.2-1.36-8.19-3.03-12.01c-3.07-7.04-9.26-12.39-16.64-14.49      c-8.79-2.51-19.42-1.2-26.08,5.48c-4.92,4.93-6.91,11.72-7.46,18.49c-0.16,2,0,3.95,0.03,5.94c0.03,2.94,0,5.88,0,8.82      c0,11.83,0,23.66,0,35.49c0,8.43-0.1,16.87,0,25.3c0,0.14,0,0.28,0,0.41c0,3.92,3.45,7.68,7.5,7.5      C493.51,261.4,496.94,258.29,496.94,254.08L496.94,254.08z"/>
			</g>
		</g>
		<rect x="239.42" y="336.3" class="st5" width="74.96" height="74.96"/>
		<rect x="352.11" y="336.3" class="st5" width="74.96" height="74.96"/>
		<rect x="468.99" y="336.3" class="st6" width="74.96" height="74.96"/>
		<rect x="239.42" y="438.05" class="st5" width="74.96" height="74.96"/>
		<rect x="352.11" y="438.05" class="st5" width="74.96" height="74.96"/>
		<rect x="468.99" y="438.05" class="st5" width="74.96" height="74.96"/>
		<rect x="239.42" y="539.81" class="st6" width="74.96" height="74.96"/>
		<rect x="352.11" y="539.81" class="st6" width="74.96" height="74.96"/>
		<rect x="468.99" y="539.81" class="st5" width="74.96" height="74.96"/>
	</g>
</g>
</svg>